<svg width="26" height="26" viewBox="0 0 26 26" fill="none" xmlns="http://www.w3.org/2000/svg">
<g id="healthicons:agriculture-outline">
<path id="Vector" fill-rule="evenodd" clip-rule="evenodd" d="M22.7176 4.03921L22.183 3.95417L22.0427 3.43092L22.8492 3.21425L22.7176 4.03921ZM15.5568 11.5305L15.0958 11.8143L15.0947 11.8132L15.0931 11.8105L15.0877 11.8018L15.0693 11.771C15.0541 11.745 15.0314 11.707 15.0043 11.6588C14.9284 11.5262 14.8552 11.392 14.7849 11.2564C14.5623 10.83 14.3679 10.3893 14.2031 9.93742C14.0201 9.42608 13.863 8.84054 13.8386 8.27396C13.8148 7.70954 13.9199 7.09692 14.3402 6.61646C14.7177 6.18529 15.4295 5.78825 16.1775 5.44483C16.9526 5.08787 17.8648 4.74554 18.7288 4.44925C19.7989 4.08377 20.8799 3.75068 21.9701 3.45042L22.0243 3.43525L22.0432 3.42983L22.1841 3.95362L22.7187 4.03867L22.7154 4.05871L22.7062 4.11612C22.6521 4.44843 22.5955 4.7803 22.5361 5.11171C22.3918 5.9267 22.2344 6.73931 22.0638 7.54921C21.871 8.45975 21.6467 9.41417 21.4089 10.2131C21.3034 10.5786 21.1792 10.9383 21.0368 11.291C20.9133 11.589 20.7671 11.8782 20.5894 12.0819C20.2091 12.5163 19.6171 12.6522 19.0998 12.6869C18.5603 12.7232 17.9623 12.6577 17.4244 12.5623C16.9447 12.4759 16.4697 12.3656 16.0009 12.2319C15.8091 12.1779 15.6184 12.1201 15.4289 12.0586L15.3948 12.0467L15.3856 12.0434L15.3829 12.0429H15.3818L15.5568 11.5305ZM15.5568 11.5305L15.0958 11.8143L15.1976 11.9795L15.3818 12.0429L15.5568 11.5305ZM15.9208 11.0792C16.4753 11.2523 17.0399 11.3916 17.6113 11.4963C18.1118 11.5846 18.6123 11.6345 19.0272 11.6063C19.4654 11.577 19.6854 11.4698 19.7736 11.369C19.83 11.304 19.9221 11.1502 20.0358 10.8761C20.1637 10.5583 20.2753 10.2341 20.37 9.90492C20.5959 9.14658 20.8131 8.22412 21.0038 7.3255C21.1867 6.45608 21.3543 5.5835 21.5064 4.70817L21.3391 4.75692C20.7384 4.93404 19.9269 5.18375 19.0803 5.47408C18.2321 5.76496 17.3584 6.09375 16.6298 6.42904C15.8736 6.77679 15.3634 7.09258 15.1554 7.33037C14.9891 7.51996 14.9035 7.81192 14.9214 8.22737C14.9387 8.64067 15.0574 9.11029 15.2231 9.57125C15.4129 10.0926 15.6462 10.5971 15.9208 11.0792ZM5.55923 5.40258L5.41894 5.92583L4.88377 6.01087L4.75269 5.18646L5.55923 5.40258ZM10.8036 12.083L11.2646 12.3662L11.2657 12.3652L11.2668 12.363L11.2711 12.356L11.2868 12.33C11.3685 12.1908 11.4465 12.0496 11.5208 11.9064C11.6638 11.6312 11.8464 11.2472 11.9991 10.8225C12.1497 10.4022 12.2808 9.91521 12.3008 9.44071C12.3214 8.96783 12.2336 8.44025 11.8686 8.02317C11.5457 7.65375 10.9483 7.32442 10.3416 7.04492C9.70731 6.75296 8.96252 6.47346 8.25889 6.23242C7.38741 5.93495 6.50716 5.66382 5.61935 5.41937L5.57494 5.40692L5.55923 5.40258L5.41894 5.92583L4.88377 6.01087L4.88648 6.02712L4.89406 6.07425L4.92331 6.25083C5.06947 7.12699 5.23399 7.99999 5.41677 8.86925C5.57385 9.61025 5.75694 10.3886 5.95085 11.0413C6.04835 11.3674 6.15019 11.6713 6.25689 11.9275C6.35819 12.1712 6.48223 12.4199 6.63823 12.5975C6.97406 12.9821 7.49027 13.0959 7.91764 13.124C8.36831 13.1544 8.86285 13.0997 9.30431 13.0222C9.8586 12.9227 10.4052 12.7844 10.9401 12.6084L10.9678 12.5992L10.9759 12.5965L10.9786 12.5954L10.8036 12.083ZM10.8036 12.083L11.2646 12.3662L11.1628 12.532L10.9786 12.5954L10.8036 12.083ZM10.4391 11.6312C10.6508 11.2551 10.8314 10.8624 10.9791 10.4569C11.1119 10.0869 11.205 9.71587 11.2186 9.39412C11.2326 9.07021 11.1644 8.86329 11.0534 8.736C10.9001 8.56158 10.5046 8.31242 9.88877 8.02912C9.3016 7.75883 8.59527 7.49287 7.90735 7.25725C7.30809 7.05267 6.70453 6.86088 6.0971 6.682L6.09927 6.69554C6.19135 7.21554 6.32244 7.91754 6.47681 8.645C6.63119 9.37408 6.80723 10.12 6.98923 10.7326C7.08077 11.0392 7.17069 11.304 7.25735 11.512C7.34944 11.7325 7.41877 11.8446 7.45344 11.8847C7.49785 11.9351 7.64139 12.0201 7.99023 12.0434C8.31577 12.0651 8.71335 12.0261 9.11635 11.9551C9.56357 11.8745 10.0053 11.7667 10.4391 11.6312ZM9.25285 16.7949C9.11527 16.8025 9.0481 16.822 9.03077 16.8296C8.78539 16.9406 8.04006 17.2006 7.39656 17.42C7.06614 17.5332 6.74927 17.6394 6.51527 17.7179L6.5001 17.7233V20.65C6.59544 20.6456 6.69781 20.6418 6.80235 20.638C7.25085 20.6218 7.78439 20.6055 8.01569 20.6153C8.98635 20.6537 9.71543 20.8834 10.3904 21.0963L10.405 21.1012C11.0376 21.3005 11.6237 21.4836 12.3913 21.5415C12.6079 21.5578 12.8186 21.5789 13.0153 21.5984H13.018C13.7731 21.6743 14.2703 21.7122 14.6554 21.5724C14.955 21.4635 16.0519 20.9549 17.1579 20.3986C17.705 20.1235 18.2413 19.8434 18.6676 19.6035C18.8815 19.4832 19.063 19.376 19.2022 19.286C19.2715 19.2411 19.3268 19.2032 19.369 19.1723C19.3856 19.1601 19.4019 19.1475 19.4178 19.1344L19.4329 19.1214C19.4871 19.0667 19.5445 18.876 19.4514 18.6967C19.4075 18.6129 19.3351 18.5475 19.2471 18.5125C19.1388 18.4654 18.9546 18.4291 18.6621 18.4773C18.0024 18.5857 17.2143 18.9031 16.4272 19.2232L16.4164 19.2281C16.0296 19.3852 15.6418 19.5428 15.2979 19.6576C14.9674 19.7676 14.6007 19.8662 14.2811 19.8472C13.8424 19.8201 13.0727 19.7064 12.4379 19.6035C12.073 19.5445 11.7087 19.4827 11.3448 19.4182L11.2744 19.4058L11.2494 19.4009L11.3524 18.3262L13.8278 18.356H13.8332C13.8621 18.3529 13.8907 18.3474 13.9188 18.3398C14.0044 18.3181 14.1511 18.2645 14.3359 18.1339C14.3927 18.0933 14.4675 18.0185 14.5374 17.9183C14.5644 17.8791 14.589 17.8382 14.611 17.7959C14.3092 17.7767 14.0093 17.7343 13.714 17.6692C13.5532 17.6342 13.3937 17.5935 13.2357 17.5473L13.2173 17.5419L10.1856 16.867L10.1569 16.8621C9.9955 16.8353 9.83303 16.8154 9.66993 16.8025C9.53122 16.791 9.3919 16.7885 9.25285 16.7949ZM10.2918 16.3367L10.3898 15.8042L10.3996 15.8058L13.4968 16.4948L13.5196 16.5019L13.5239 16.5035L13.5445 16.5095L13.6301 16.5338C13.7054 16.5544 13.8137 16.5826 13.9426 16.6107C14.2059 16.6676 14.5352 16.7202 14.8396 16.7202C15.1446 16.7202 15.4761 16.8339 15.6548 17.1578C15.8076 17.4352 15.7696 17.7353 15.716 17.9335C15.6662 18.1088 15.592 18.2762 15.4956 18.4307C15.6602 18.3657 15.8352 18.2953 16.0188 18.2206L16.0524 18.2065C16.7988 17.9032 17.6936 17.5392 18.4861 17.4086C19.4069 17.258 20.0976 17.5885 20.4134 18.1995C20.6918 18.7384 20.63 19.4491 20.2048 19.8813C20.0981 19.9897 19.9394 20.0996 19.7877 20.1977C19.5946 20.3199 19.3981 20.4368 19.1984 20.5481C18.7515 20.7995 18.1985 21.0882 17.6438 21.3671C16.5486 21.918 15.3948 22.457 15.0243 22.5913C14.3819 22.8242 13.6387 22.75 12.9784 22.6839L12.9096 22.6769C12.7098 22.6564 12.5097 22.6383 12.3095 22.6227C11.4103 22.5545 10.7213 22.3373 10.0919 22.139L10.0784 22.1347C9.40127 21.9212 8.79135 21.7311 7.97235 21.6981C7.79252 21.691 7.30827 21.704 6.84135 21.7214C6.57842 21.7309 6.31553 21.7416 6.05269 21.7533L5.98281 21.7566L5.41623 21.7826V16.9422L5.89127 16.7846C6.27673 16.6565 6.66168 16.5269 7.0461 16.3957C7.71994 16.1655 8.39918 15.9266 8.58443 15.8432C8.78323 15.7533 9.0091 15.724 9.19002 15.7132C9.38231 15.7024 9.58002 15.7105 9.75281 15.7235C9.96081 15.7398 10.1679 15.7656 10.3736 15.801L10.3849 15.8031H10.3882L10.3893 15.8037H10.3904L10.2918 16.3367Z" fill="#295BFF"/>
<path id="Vector_2" fill-rule="evenodd" clip-rule="evenodd" d="M19.0395 7.17167C19.0935 7.2179 19.1379 7.27433 19.1702 7.33774C19.2025 7.40114 19.2219 7.47028 19.2274 7.5412C19.233 7.61212 19.2245 7.68344 19.2024 7.75108C19.1804 7.81872 19.1453 7.88136 19.099 7.93542C17.4843 9.81933 15.4742 12.5802 14.587 14.8243C14.5608 14.8905 14.5218 14.9508 14.4723 15.0019C14.4228 15.053 14.3637 15.0939 14.2985 15.1222C14.2332 15.1504 14.163 15.1656 14.0918 15.1667C14.0207 15.1678 13.95 15.1549 13.8839 15.1287C13.8177 15.1026 13.7574 15.0636 13.7063 15.0141C13.6552 14.9646 13.6143 14.9055 13.5861 14.8403C13.5578 14.775 13.5427 14.7048 13.5415 14.6336C13.5404 14.5625 13.5533 14.4918 13.5795 14.4257C14.5344 12.0104 16.6404 9.139 18.2757 7.23071C18.3692 7.12168 18.5022 7.05426 18.6455 7.04329C18.7887 7.03232 18.9304 7.07869 19.0395 7.17221M8.3307 8.90933C8.27485 8.95342 8.22822 9.00808 8.1935 9.0702C8.15878 9.13231 8.13663 9.20066 8.12833 9.27134C8.12003 9.34201 8.12574 9.41363 8.14513 9.4821C8.16452 9.55057 8.19721 9.61454 8.24133 9.67037C9.45575 11.2114 10.7817 13.1836 11.4112 14.8195C11.4652 14.95 11.5681 15.0543 11.698 15.11C11.8278 15.1658 11.9743 15.1686 12.1062 15.1178C12.2381 15.0671 12.3449 14.9668 12.4039 14.8384C12.4629 14.71 12.4693 14.5637 12.4219 14.4305C11.7335 12.6409 10.3267 10.5657 9.09175 8.99979C9.00287 8.88697 8.87284 8.81407 8.73023 8.79711C8.58761 8.78014 8.44356 8.82051 8.3307 8.90933Z" fill="#295BFF"/>
<path id="Vector_3" d="M3.25 15.7083H6.5V22.75H3.25V15.7083Z" fill="#295BFF"/>
</g>
</svg>
