<svg width="17" height="17" viewBox="0 0 17 17" fill="none" xmlns="http://www.w3.org/2000/svg">
<g id="mdi:company">
<path id="Vector" d="M12.7501 10.625H11.3334V12.0417H12.7501M12.7501 7.79167H11.3334V9.20833H12.7501M14.1667 13.4583H8.50008V12.0417H9.91675V10.625H8.50008V9.20833H9.91675V7.79167H8.50008V6.375H14.1667M7.08341 4.95833H5.66675V3.54167H7.08341M7.08341 7.79167H5.66675V6.375H7.08341M7.08341 10.625H5.66675V9.20833H7.08341M7.08341 13.4583H5.66675V12.0417H7.08341M4.25008 4.95833H2.83341V3.54167H4.25008M4.25008 7.79167H2.83341V6.375H4.25008M4.25008 10.625H2.83341V9.20833H4.25008M4.25008 13.4583H2.83341V12.0417H4.25008M8.50008 4.95833V2.125H1.41675V14.875H15.5834V4.95833H8.50008Z" fill="#295BFF"/>
</g>
</svg>
