<svg width="15" height="24" viewBox="0 0 15 24" fill="none" xmlns="http://www.w3.org/2000/svg">
<g id="mynaui:box">
<path id="Vector" d="M12 21L20.131 16.792C20.447 16.628 20.605 16.547 20.72 16.426C20.8219 16.3198 20.899 16.1924 20.946 16.053C21 15.894 21 15.717 21 15.361V7.533M12 21L3.869 16.792C3.553 16.628 3.395 16.547 3.28 16.426C3.17838 16.3196 3.10124 16.1923 3.054 16.053C3 15.894 3 15.716 3 15.359V7.533M12 21V11.937M21 7.533L12 11.937M21 7.533L12.73 3.253C12.463 3.115 12.33 3.045 12.189 3.018C12.0642 2.99382 11.9358 2.99382 11.811 3.018C11.671 3.045 11.537 3.115 11.269 3.253L3 7.533M3 7.533L12 11.937" stroke="#295BFF" stroke-width="1.5" stroke-linecap="round" stroke-linejoin="round"/>
</g>
</svg>
