<svg width="15" height="24" viewBox="0 0 15 24" fill="none" xmlns="http://www.w3.org/2000/svg">
<g id="mynaui:box">
<path id="Vector" d="M12 21L20.131 16.792C20.447 16.628 20.605 16.547 20.72 16.426C20.8219 16.3198 20.899 16.1925 20.946 16.053C21 15.894 21 15.717 21 15.361V7.53301M12 21L3.869 16.792C3.553 16.628 3.395 16.547 3.28 16.426C3.17838 16.3196 3.10124 16.1923 3.054 16.053C3 15.894 3 15.716 3 15.359V7.53301M12 21V11.937M21 7.53301L12 11.937M21 7.53301L12.73 3.25301C12.463 3.11501 12.33 3.04501 12.189 3.01801C12.0642 2.99383 11.9358 2.99383 11.811 3.01801C11.671 3.04501 11.537 3.11501 11.269 3.25301L3 7.53301M3 7.53301L12 11.937" stroke="#295BFF" stroke-width="1.5" stroke-linecap="round" stroke-linejoin="round"/>
</g>
</svg>
