<svg width="21" height="21" viewBox="0 0 21 21" fill="none" xmlns="http://www.w3.org/2000/svg">
<g id="fluent-mdl2:shirt">
<path id="Vector" d="M0 3.9375L1.3125 9.1875H3.9375V19.6875H17.0625V9.1875H19.6875L21 3.9375L13.125 1.3125C13.125 1.6748 13.0566 2.01318 12.9199 2.32764C12.7832 2.64209 12.5952 2.92236 12.356 3.16846C12.1167 3.41455 11.8398 3.60254 11.5254 3.73242C11.2109 3.8623 10.8691 3.93066 10.5 3.9375C10.1377 3.9375 9.79932 3.86914 9.48486 3.73242C9.17041 3.5957 8.89014 3.40771 8.64404 3.16846C8.39795 2.9292 8.20996 2.65234 8.08008 2.33789C7.9502 2.02344 7.88184 1.68164 7.875 1.3125L0 3.9375ZM1.56885 4.79883L6.94189 3.00439C7.10596 3.34619 7.31104 3.65381 7.55713 3.92725C7.80322 4.20068 8.0835 4.43652 8.39795 4.63477C8.7124 4.83301 9.04395 4.9834 9.39258 5.08594C9.74121 5.18848 10.1104 5.24316 10.5 5.25C10.8828 5.25 11.252 5.19873 11.6074 5.09619C11.9629 4.99365 12.2944 4.84326 12.6021 4.64502C12.9097 4.44678 13.1865 4.21094 13.4326 3.9375C13.6787 3.66406 13.8872 3.35303 14.0581 3.00439L19.4312 4.79883L18.6621 7.875H15.75V18.375H5.25V7.875H2.33789L1.56885 4.79883Z" fill="#295BFF"/>
</g>
</svg>
