<svg width="20" height="20" viewBox="0 0 20 20" fill="none" xmlns="http://www.w3.org/2000/svg">
<path d="M12 19V11.414C11.9998 11.1489 12.1048 10.8947 12.292 10.707L18.707 4.293C18.8946 4.10551 18.9999 3.85119 19 3.586V2C19 1.73478 18.8946 1.48043 18.7071 1.29289C18.5196 1.10536 18.2652 1 18 1H2C1.73478 1 1.48043 1.10536 1.29289 1.29289C1.10536 1.48043 1 1.73478 1 2V3.586C0.999792 3.85105 1.10482 4.10534 1.292 4.293L7.707 10.707C7.89455 10.8945 7.99994 11.1488 8 11.414V17.219" stroke="#295BFF" stroke-width="1.5" stroke-linecap="round" stroke-linejoin="round"/>
</svg>
