<svg width="118" height="94" viewBox="0 0 118 94" fill="none" xmlns="http://www.w3.org/2000/svg">
<g clip-path="url(#clip0_457_24)">
<path d="M43.9788 0.806943L51.3009 14.0161L44.5768 26.1197C44.2548 26.6977 44.0859 27.3484 44.0859 28.01C44.0859 28.6716 44.2548 29.3223 44.5768 29.9003L51.3009 42.0338L43.9791 55.2429C42.6013 54.56 41.4572 53.4836 40.6915 52.1501L29.0366 31.9024C28.3575 30.7202 28.0002 29.3806 28.0002 28.0173C28.0002 26.6539 28.3575 25.3144 29.0366 24.1322L40.6918 3.88473C41.4597 2.55659 42.6036 1.4855 43.9793 0.806458" fill="url(#paint0_linear_457_24)"/>
<path opacity="0.7" d="M44.5768 26.1348C44.2576 26.7109 44.0902 27.3588 44.0902 28.0174C44.0902 28.6761 44.2576 29.3239 44.5768 29.9001L51.301 42.0335L43.9791 55.2429C42.6014 54.56 41.4573 53.4836 40.6916 52.1501L29.0366 31.9024C28.1102 30.3035 33.2952 28.3908 44.5771 26.1493L44.5768 26.1348Z" fill="url(#paint1_linear_457_24)"/>
<path opacity="0.5" d="M44.7261 2.13682L51.3009 14.0161L50.2102 15.914L44.4125 6.09658C42.7388 3.36206 40.1835 4.78176 36.986 10.3105L37.4642 9.48851L40.6916 3.88498C41.4515 2.56118 42.5846 1.49054 43.9493 0.806702L44.7113 2.13682H44.7261Z" fill="url(#paint2_linear_457_24)"/>
<path d="M77.4505 3.88499L89.1057 24.1324C90.4956 26.5232 90.4956 29.5119 89.1057 31.9026L77.4505 52.1498C76.769 53.3303 75.7889 54.3108 74.6086 54.9927C73.4284 55.6747 72.0895 56.0342 70.7264 56.0351H59.0712L73.5655 29.9003C73.8847 29.3241 74.0522 28.6762 74.0522 28.0175C74.0522 27.3588 73.8847 26.7109 73.5655 26.1348L59.0712 0H70.7264C72.0895 0.00087688 73.4283 0.360313 74.6086 1.04223C75.7888 1.72414 76.7689 2.70453 77.4505 3.88499Z" fill="url(#paint3_linear_457_24)"/>
<path d="M70.1288 55.9455L58.6229 56.0499L72.5496 29.7806C72.861 29.1965 73.0238 28.5448 73.0238 27.8829C73.0238 27.221 72.861 26.5693 72.5496 25.9852L58.6226 0H61.2527L75.8666 25.8658C76.2128 26.4768 76.3936 27.1677 76.391 27.8701C76.3883 28.5725 76.2024 29.262 75.8515 29.8704C72.7064 35.3368 69.5834 40.8158 66.4827 46.3074C63.6435 51.2982 64.8688 54.5107 70.1285 55.9452" fill="url(#paint4_linear_457_24)"/>
<path d="M47.4159 56.0351C46.2206 56.0351 45.0249 55.751 43.9791 55.2429L58.3538 29.3174C58.5743 28.9196 58.69 28.4723 58.69 28.0174C58.69 27.5626 58.5743 27.1152 58.3538 26.7174L43.9791 0.806955C45.0476 0.277838 46.2236 0.00172711 47.4159 0L59.0711 0L73.5655 26.1348C73.8847 26.7109 74.0521 27.3588 74.0521 28.0174C74.0521 28.6761 73.8847 29.3239 73.5655 29.9001L59.0711 56.0353L47.4159 56.0351Z" fill="url(#paint5_linear_457_24)"/>
<path opacity="0.6" d="M72.5495 26.7174L57.7262 0H59.0712L73.5655 26.1348C73.8847 26.7109 74.0522 27.3588 74.0522 28.0174C74.0522 28.6761 73.8847 29.3239 73.5655 29.9001L59.0712 56.0353H57.7262L72.5495 29.3177C72.7701 28.9199 72.8858 28.4725 72.8858 28.0177C72.8858 27.5628 72.7701 27.1152 72.5495 26.7174Z" fill="url(#paint6_linear_457_24)"/>
<path opacity="0.6" d="M58.3538 26.7173L43.9791 0.806904C44.4272 0.567779 44.9652 0.388375 45.4733 0.238831C48.6412 5.93218 53.3183 14.5691 59.5195 26.1347C59.8387 26.7109 60.0062 27.3587 60.0062 28.0174C60.0062 28.676 59.8387 29.3239 59.5195 29.9L45.2492 55.7364C44.7411 55.5869 44.4722 55.4822 43.9941 55.2582L58.339 29.3327C58.5595 28.9349 58.6752 28.4875 58.6752 28.0327C58.6752 27.5778 58.5595 27.1304 58.339 26.7326L58.3538 26.7173Z" fill="url(#paint7_linear_457_24)"/>
</g>
<path d="M20.6405 81.9083V85.7234C20.6405 86.2302 20.5907 86.6375 20.4911 86.9453C20.3916 87.2439 20.206 87.5155 19.9345 87.7599C19.672 88.0042 19.3326 88.2396 18.9163 88.4658C17.7125 89.1175 16.5539 89.5927 15.4406 89.8914C14.3273 90.1901 13.1145 90.3394 11.8021 90.3394C10.2724 90.3394 8.87857 90.1041 7.62047 89.6334C6.36236 89.1628 5.2898 88.4794 4.4028 87.5834C3.51579 86.6873 2.83243 85.6012 2.35272 84.325C1.88206 83.0487 1.64673 81.6232 1.64673 80.0483C1.64673 78.5006 1.87754 77.0841 2.33914 75.7988C2.80075 74.5135 3.47958 73.4229 4.37564 72.5268C5.2717 71.6308 6.36236 70.9474 7.64762 70.4768C8.93288 69.997 10.3901 69.7572 12.0193 69.7572C13.3589 69.7572 14.5446 69.9382 15.5764 70.3003C16.6082 70.6533 17.4454 71.1013 18.0881 71.6443C18.7307 72.1874 19.2149 72.7622 19.5408 73.3686C19.8666 73.975 20.0295 74.5135 20.0295 74.9842C20.0295 75.4911 19.8395 75.9255 19.4593 76.2876C19.0882 76.6406 18.6402 76.8171 18.1152 76.8171C17.8256 76.8171 17.545 76.7492 17.2735 76.6134C17.011 76.4776 16.7892 76.2876 16.6082 76.0432C16.1104 75.2648 15.6895 74.6765 15.3456 74.2782C15.0016 73.88 14.5355 73.5451 13.9472 73.2735C13.3679 73.002 12.6257 72.8662 11.7206 72.8662C10.7884 72.8662 9.95565 73.0292 9.22251 73.355C8.48937 73.6718 7.86032 74.1379 7.33536 74.7534C6.81944 75.3598 6.42119 76.1065 6.14061 76.9936C5.86908 77.8806 5.73331 78.8626 5.73331 79.9397C5.73331 82.2749 6.26732 84.0715 7.33536 85.3296C8.41244 86.5877 9.9104 87.2168 11.8292 87.2168C12.7615 87.2168 13.6349 87.0946 14.4495 86.8502C15.2732 86.6058 16.1059 86.2574 16.9476 85.8048V82.5736H13.825C13.0738 82.5736 12.5035 82.4604 12.1143 82.2341C11.7342 82.0079 11.5441 81.6232 11.5441 81.0801C11.5441 80.6366 11.7025 80.2701 12.0193 79.9804C12.3451 79.6908 12.7841 79.546 13.3362 79.546H17.9116C18.4727 79.546 18.9479 79.5957 19.3371 79.6953C19.7263 79.7949 20.0386 80.0166 20.2739 80.3606C20.5183 80.7045 20.6405 81.2204 20.6405 81.9083ZM28.3674 84.9902V88.0857C28.3674 88.8369 28.1909 89.4026 27.8379 89.7828C27.4849 90.1539 27.0369 90.3394 26.4938 90.3394C25.9598 90.3394 25.5208 90.1493 25.1769 89.7692C24.833 89.3891 24.661 88.8279 24.661 88.0857V77.7674C24.661 76.102 25.2629 75.2693 26.4667 75.2693C27.0822 75.2693 27.5257 75.4639 27.7972 75.8531C28.0687 76.2423 28.2181 76.8171 28.2452 77.5774C28.6887 76.8171 29.1413 76.2423 29.6029 75.8531C30.0736 75.4639 30.6981 75.2693 31.4765 75.2693C32.2549 75.2693 33.0106 75.4639 33.7438 75.8531C34.4769 76.2423 34.8435 76.7582 34.8435 77.4009C34.8435 77.8534 34.6851 78.229 34.3683 78.5277C34.0606 78.8174 33.7257 78.9622 33.3636 78.9622C33.2279 78.9622 32.8975 78.8807 32.3725 78.7178C31.8566 78.5458 31.3995 78.4598 31.0013 78.4598C30.4582 78.4598 30.0147 78.6047 29.6708 78.8943C29.3268 79.1749 29.0598 79.5957 28.8698 80.1569C28.6797 80.7181 28.5484 81.3879 28.476 82.1663C28.4036 82.9356 28.3674 83.8769 28.3674 84.9902ZM50.1598 82.8044C50.1598 83.9086 49.9878 84.9269 49.6439 85.8591C49.2999 86.7914 48.8021 87.5924 48.1504 88.2622C47.4988 88.932 46.7204 89.4479 45.8152 89.8099C44.9101 90.1629 43.8919 90.3394 42.7605 90.3394C41.6382 90.3394 40.629 90.1584 39.7329 89.7964C38.8368 89.4343 38.0584 88.9184 37.3977 88.2486C36.746 87.5698 36.2482 86.7733 35.9043 85.8591C35.5694 84.9359 35.4019 83.9177 35.4019 82.8044C35.4019 81.682 35.5739 80.6547 35.9179 79.7225C36.2618 78.7902 36.7551 77.9937 37.3977 77.333C38.0403 76.6722 38.8187 76.1654 39.7329 75.8124C40.6471 75.4503 41.6563 75.2693 42.7605 75.2693C43.8828 75.2693 44.9011 75.4503 45.8152 75.8124C46.7294 76.1744 47.5123 76.6903 48.164 77.3601C48.8157 78.0299 49.309 78.8264 49.6439 79.7496C49.9878 80.6728 50.1598 81.6911 50.1598 82.8044ZM46.4398 82.8044C46.4398 81.2928 46.1049 80.1162 45.4351 79.2744C44.7744 78.4327 43.8828 78.0118 42.7605 78.0118C42.0364 78.0118 41.3983 78.2019 40.8462 78.582C40.2941 78.9531 39.8687 79.5052 39.57 80.2384C39.2713 80.9715 39.122 81.8268 39.122 82.8044C39.122 83.7728 39.2668 84.6191 39.5564 85.3432C39.8551 86.0673 40.276 86.6239 40.819 87.0131C41.3712 87.3933 42.0183 87.5834 42.7605 87.5834C43.8828 87.5834 44.7744 87.1625 45.4351 86.3207C46.1049 85.4699 46.4398 84.2978 46.4398 82.8044ZM55.8638 77.5774L58.2804 85.8591L60.4799 78.1611C60.7152 77.3556 60.8872 76.808 60.9958 76.5184C61.1134 76.2197 61.3261 75.9391 61.6339 75.6766C61.9507 75.4051 62.3806 75.2693 62.9237 75.2693C63.4758 75.2693 63.9057 75.4051 64.2134 75.6766C64.5302 75.9391 64.752 76.2287 64.8787 76.5455C65.0054 76.8533 65.1819 77.3918 65.4082 78.1611L67.6076 85.8591L70.0514 77.5774C70.2143 76.98 70.3456 76.55 70.4451 76.2876C70.5447 76.016 70.7121 75.7807 70.9475 75.5816C71.1828 75.3734 71.5222 75.2693 71.9657 75.2693C72.4092 75.2693 72.7939 75.4232 73.1197 75.7309C73.4456 76.0387 73.6085 76.4007 73.6085 76.8171C73.6085 77.1972 73.4682 77.7719 73.1876 78.5413L70.16 87.4204C69.8975 88.1717 69.6939 88.7147 69.5491 89.0496C69.4043 89.3845 69.1735 89.6832 68.8567 89.9457C68.5489 90.2082 68.1235 90.3394 67.5805 90.3394C67.0193 90.3394 66.5758 90.1991 66.2499 89.9185C65.9332 89.638 65.6978 89.294 65.544 88.8867C65.3901 88.4794 65.2226 87.9499 65.0416 87.2982L62.9237 80.0755L60.8736 87.2982C60.602 88.3029 60.3079 89.0632 59.9911 89.5791C59.6743 90.086 59.1177 90.3394 58.3212 90.3394C57.9139 90.3394 57.5654 90.258 57.2758 90.095C56.9952 89.9412 56.7599 89.7194 56.5698 89.4298C56.3797 89.1311 56.2123 88.7826 56.0674 88.3844C55.9226 87.9771 55.8095 87.6558 55.728 87.4204L52.7276 78.5413C52.4289 77.7086 52.2796 77.1338 52.2796 76.8171C52.2796 76.4188 52.4379 76.0613 52.7547 75.7445C53.0715 75.4277 53.4607 75.2693 53.9223 75.2693C54.5378 75.2693 54.9542 75.4458 55.1714 75.7988C55.3886 76.1427 55.6194 76.7356 55.8638 77.5774Z" fill="#FFCD29"/>
<path d="M85.3948 90H79.3125C78.4345 90 77.8055 89.8054 77.4253 89.4162C77.0542 89.018 76.8687 88.3889 76.8687 87.529V72.5676C76.8687 71.6896 77.0588 71.0606 77.4389 70.6804C77.8281 70.2912 78.4526 70.0966 79.3125 70.0966H85.7614C86.7118 70.0966 87.5354 70.1554 88.2324 70.2731C88.9293 70.3908 89.5538 70.617 90.1059 70.9519C90.5766 71.2325 90.993 71.59 91.355 72.0245C91.717 72.4499 91.9931 72.9251 92.1832 73.45C92.3733 73.966 92.4683 74.5135 92.4683 75.0928C92.4683 77.0841 91.4727 78.5413 89.4814 79.4645C92.0972 80.2972 93.4051 81.9174 93.4051 84.325C93.4051 85.4382 93.12 86.4429 92.5497 87.339C91.9795 88.226 91.2102 88.8822 90.2417 89.3076C89.6353 89.561 88.9384 89.742 88.1509 89.8507C87.3635 89.9502 86.4448 90 85.3948 90ZM85.0962 81.1616H80.901V86.9724H85.2319C87.9563 86.9724 89.3185 85.9904 89.3185 84.0263C89.3185 83.0216 88.9655 82.293 88.2595 81.8404C87.5535 81.3879 86.4991 81.1616 85.0962 81.1616ZM80.901 73.1242V78.2698H84.5938C85.5985 78.2698 86.3724 78.1747 86.9154 77.9847C87.4676 77.7946 87.8884 77.4325 88.1781 76.8985C88.4043 76.5184 88.5175 76.093 88.5175 75.6223C88.5175 74.6176 88.16 73.9524 87.4449 73.6265C86.7299 73.2916 85.6392 73.1242 84.1729 73.1242H80.901ZM100.82 77.3737V88.0857C100.82 88.8279 100.643 89.3891 100.29 89.7692C99.9373 90.1493 99.4892 90.3394 98.9462 90.3394C98.4031 90.3394 97.9596 90.1448 97.6157 89.7556C97.2808 89.3664 97.1133 88.8098 97.1133 88.0857V77.4823C97.1133 76.7492 97.2808 76.1971 97.6157 75.826C97.9596 75.4549 98.4031 75.2693 98.9462 75.2693C99.4892 75.2693 99.9373 75.4549 100.29 75.826C100.643 76.1971 100.82 76.713 100.82 77.3737ZM98.9869 73.5451C98.471 73.5451 98.0275 73.3867 97.6564 73.0699C97.2943 72.7531 97.1133 72.3051 97.1133 71.7258C97.1133 71.2008 97.2989 70.7709 97.67 70.436C98.0501 70.0921 98.4891 69.9201 98.9869 69.9201C99.4666 69.9201 99.892 70.074 100.263 70.3817C100.634 70.6895 100.82 71.1375 100.82 71.7258C100.82 72.296 100.639 72.7441 100.277 73.0699C99.9146 73.3867 99.4847 73.5451 98.9869 73.5451ZM115.199 79.5188L108.411 87.1082H115.674C116.263 87.1082 116.706 87.2485 117.005 87.529C117.304 87.8006 117.453 88.1536 117.453 88.588C117.453 89.0044 117.304 89.3438 117.005 89.6063C116.715 89.8688 116.272 90 115.674 90H105.628C104.922 90 104.392 89.8461 104.039 89.5384C103.695 89.2307 103.523 88.8098 103.523 88.2758C103.523 87.959 103.646 87.6422 103.89 87.3254C104.134 86.9996 104.641 86.4067 105.41 85.5469C106.225 84.6417 106.963 83.8226 107.623 83.0895C108.293 82.3563 108.913 81.673 109.483 81.0394C110.054 80.3968 110.524 79.8537 110.895 79.4102C111.276 78.9667 111.579 78.5865 111.805 78.2698H106.293C105.533 78.2698 104.958 78.2019 104.569 78.0661C104.18 77.9303 103.985 77.5728 103.985 76.9936C103.985 76.5682 104.13 76.2287 104.419 75.9753C104.718 75.7219 105.139 75.5952 105.682 75.5952H114.195C114.982 75.5952 115.584 75.7128 116 75.9482C116.426 76.1744 116.638 76.5863 116.638 77.1836C116.638 77.3828 116.598 77.5909 116.516 77.8082C116.435 78.0163 116.344 78.1883 116.245 78.3241C116.145 78.4598 116.009 78.6273 115.837 78.8264C115.665 79.0165 115.453 79.2473 115.199 79.5188Z" fill="#295BFF"/>
<defs>
<linearGradient id="paint0_linear_457_24" x1="1193.04" y1="5444.45" x2="-1193.54" y2="1606.32" gradientUnits="userSpaceOnUse">
<stop stop-color="#295BFF"/>
<stop offset="0.976" stop-color="#295BFF" stop-opacity="0.5"/>
</linearGradient>
<linearGradient id="paint1_linear_457_24" x1="1840.87" y1="2462.49" x2="612.078" y2="1198.72" gradientUnits="userSpaceOnUse">
<stop stop-color="#BF8A5E"/>
<stop offset="1" stop-color="#D96504" stop-opacity="0"/>
</linearGradient>
<linearGradient id="paint2_linear_457_24" x1="638.214" y1="132.241" x2="1288.74" y2="1177.19" gradientUnits="userSpaceOnUse">
<stop stop-color="#7487FF" stop-opacity="0.5"/>
<stop offset="1" stop-color="#EB720A" stop-opacity="0"/>
</linearGradient>
<linearGradient id="paint3_linear_457_24" x1="1612.92" y1="5603.51" x2="-524.046" y2="1150.64" gradientUnits="userSpaceOnUse">
<stop stop-color="#295BFF"/>
<stop offset="1" stop-color="#FFCD29"/>
</linearGradient>
<linearGradient id="paint4_linear_457_24" x1="-531.288" y1="5604.99" x2="2890.18" y2="4736.58" gradientUnits="userSpaceOnUse">
<stop offset="0.498" stop-color="white"/>
<stop offset="1" stop-color="white" stop-opacity="0"/>
</linearGradient>
<linearGradient id="paint5_linear_457_24" x1="1547.63" y1="5603.53" x2="-632.974" y2="1206.52" gradientUnits="userSpaceOnUse">
<stop stop-color="#576FBD"/>
<stop offset="1" stop-color="#295BFF"/>
</linearGradient>
<linearGradient id="paint6_linear_457_24" x1="189.966" y1="61.6388" x2="2008.44" y2="347.522" gradientUnits="userSpaceOnUse">
<stop stop-color="#295BFF"/>
<stop offset="0.931" stop-color="#295BFF"/>
<stop offset="1" stop-color="#295BFF"/>
</linearGradient>
<linearGradient id="paint7_linear_457_24" x1="-175.592" y1="5783.09" x2="2072.1" y2="5451.97" gradientUnits="userSpaceOnUse">
<stop stop-color="white"/>
<stop offset="1" stop-color="white" stop-opacity="0.1"/>
</linearGradient>
<clipPath id="clip0_457_24">
<rect width="62.1482" height="56.079" fill="white" transform="translate(28)"/>
</clipPath>
</defs>
</svg>
