<svg width="23" height="22" viewBox="0 0 23 22" fill="none" xmlns="http://www.w3.org/2000/svg">
<path id="Vector" d="M12.1432 1.8717C11.959 1.71497 11.725 1.6289 11.4831 1.6289C11.2412 1.6289 11.0073 1.71497 10.823 1.8717L2.87766 8.62568C2.76517 8.7214 2.67483 8.84043 2.61292 8.97453C2.551 9.10863 2.51899 9.25459 2.5191 9.40229V19.9627C2.5191 20.0708 2.56203 20.1744 2.63845 20.2508C2.71486 20.3272 2.8185 20.3702 2.92656 20.3702H7.00111C7.10918 20.3702 7.21282 20.3272 7.28923 20.2508C7.36564 20.1744 7.40857 20.0708 7.40857 19.9627V14.2583C7.40857 13.718 7.62321 13.1998 8.00527 12.8178C8.38734 12.4357 8.90553 12.2211 9.44585 12.2211H13.5237C13.7912 12.2211 14.0561 12.2738 14.3033 12.3761C14.5505 12.4785 14.7751 12.6286 14.9642 12.8178C15.1534 13.007 15.3035 13.2315 15.4059 13.4787C15.5082 13.7259 15.5609 13.9908 15.5609 14.2583V19.9627C15.5609 20.0708 15.6039 20.1744 15.6803 20.2508C15.7567 20.3272 15.8603 20.3702 15.9684 20.3702H20.0397C20.1478 20.3702 20.2514 20.3272 20.3278 20.2508C20.4042 20.1744 20.4471 20.0708 20.4471 19.9627V9.40148C20.4471 9.25391 20.4151 9.10811 20.3532 8.97416C20.2913 8.84021 20.201 8.72131 20.0886 8.62568L12.1432 1.8717ZM9.76774 0.630593C10.2466 0.223515 10.8546 0 11.4831 0C12.1116 0 12.7197 0.223515 13.1985 0.630593L21.1439 7.38376C21.4363 7.63237 21.6713 7.94159 21.8324 8.28998C21.9935 8.63838 22.0769 9.01763 22.077 9.40148V19.9627C22.077 20.503 21.8623 21.0212 21.4803 21.4033C21.0982 21.7854 20.58 22 20.0397 22H15.9684C15.4281 22 14.9099 21.7854 14.5278 21.4033C14.1458 21.0212 13.9311 20.503 13.9311 19.9627V14.2583C13.9311 14.1503 13.8882 14.0466 13.8118 13.9702C13.7354 13.8938 13.6317 13.8509 13.5237 13.8509H9.44585C9.33778 13.8509 9.23414 13.8938 9.15773 13.9702C9.08132 14.0466 9.03839 14.1503 9.03839 14.2583V19.9627C9.03839 20.503 8.82375 21.0212 8.44169 21.4033C8.05962 21.7854 7.54143 22 7.00111 22H2.92656C2.38624 22 1.86805 21.7854 1.48599 21.4033C1.10392 21.0212 0.889282 20.503 0.889282 19.9627V9.40148C0.889304 9.01763 0.97276 8.63838 1.13387 8.28998C1.29499 7.94159 1.5299 7.63237 1.82236 7.38376L9.76774 0.630593Z" fill="#295BFF"/>
</svg>
