<svg width="24" height="22" viewBox="0 0 24 22" fill="none" xmlns="http://www.w3.org/2000/svg">
<g id="icon-park-outline:cosmetic-brush">
<g id="Group">
<path id="Vector" d="M8.05005 11.8383L19.3635 2.76329C19.3635 2.76329 20.4235 1.79163 21.4845 2.76329C22.545 3.73588 21.4845 4.708 21.4845 4.708L11.585 15.0792L8.05005 11.8383Z" stroke="#295BFF" stroke-width="1.41667" stroke-linejoin="round"/>
<path id="Vector_2" d="M11.2319 9.56954L14.0604 12.1623" stroke="#295BFF" stroke-width="1.41667" stroke-linecap="round" stroke-linejoin="round"/>
<path id="Vector_3" d="M2.74646 14.1066L8.04996 11.8378L11.585 15.0792L9.10996 19.9402C9.10996 19.9402 6.63496 20.2643 4.51396 18.32C2.39246 16.3753 2.74646 14.1066 2.74646 14.1066Z" stroke="#295BFF" stroke-width="1.41667" stroke-linejoin="round"/>
<path id="Vector_4" d="M3.45398 16.6994L5.92898 15.7272M6.28248 19.2922L6.98998 17.996" stroke="#295BFF" stroke-width="1.41667" stroke-linecap="round" stroke-linejoin="round"/>
<path id="Vector_5" d="M9.46497 10.7039L10.879 9.56954L12.293 8.43517M15.298 11.1897L14.0605 12.4859L12.823 13.7825" stroke="#295BFF" stroke-width="1.41667" stroke-linejoin="round"/>
</g>
</g>
</svg>
