<svg width="20" height="20" viewBox="0 0 20 20" fill="none" xmlns="http://www.w3.org/2000/svg">
<g id="fluent:food-16-filled">
<path id="Vector" d="M5 1.875C5 1.70924 4.93415 1.55027 4.81694 1.43306C4.69973 1.31585 4.54076 1.25 4.375 1.25C4.20924 1.25 4.05027 1.31585 3.93306 1.43306C3.81585 1.55027 3.75 1.70924 3.75 1.875V5.625C3.74985 6.34541 3.99861 7.04374 4.45418 7.60181C4.90975 8.15989 5.54415 8.54342 6.25 8.6875V18.125C6.25 18.2908 6.31585 18.4497 6.43306 18.5669C6.55027 18.6842 6.70924 18.75 6.875 18.75C7.04076 18.75 7.19973 18.6842 7.31694 18.5669C7.43415 18.4497 7.5 18.2908 7.5 18.125V8.6875C8.20585 8.54342 8.84025 8.15989 9.29582 7.60181C9.75139 7.04374 10.0001 6.34541 10 5.625V1.875C10 1.70924 9.93415 1.55027 9.81694 1.43306C9.69973 1.31585 9.54076 1.25 9.375 1.25C9.20924 1.25 9.05027 1.31585 8.93306 1.43306C8.81585 1.55027 8.75 1.70924 8.75 1.875V5.625C8.7502 6.01291 8.63009 6.39133 8.40621 6.70811C8.18234 7.0249 7.86572 7.26445 7.5 7.39375V1.875C7.5 1.70924 7.43415 1.55027 7.31694 1.43306C7.19973 1.31585 7.04076 1.25 6.875 1.25C6.70924 1.25 6.55027 1.31585 6.43306 1.43306C6.31585 1.55027 6.25 1.70924 6.25 1.875V7.39375C5.88428 7.26445 5.56766 7.0249 5.34379 6.70811C5.11991 6.39133 4.9998 6.01291 5 5.625V1.875ZM13.75 18.125V10H11.875C11.7092 10 11.5503 9.93415 11.4331 9.81694C11.3158 9.69973 11.25 9.54076 11.25 9.375V4.375C11.25 3.54625 11.6575 2.77125 12.2137 2.21375C12.7712 1.6575 13.5463 1.25 14.375 1.25C14.5408 1.25 14.6997 1.31585 14.8169 1.43306C14.9342 1.55027 15 1.70924 15 1.875V18.125C15 18.2908 14.9342 18.4497 14.8169 18.5669C14.6997 18.6842 14.5408 18.75 14.375 18.75C14.2092 18.75 14.0503 18.6842 13.9331 18.5669C13.8158 18.4497 13.75 18.2908 13.75 18.125Z" fill="#295BFF"/>
</g>
</svg>
