<svg width="16" height="16" viewBox="0 0 16 16" fill="none" xmlns="http://www.w3.org/2000/svg">
<g id="Group">
<path id="Vector" d="M8 1.3335C9.5913 1.3335 11.1174 1.96564 12.2426 3.09086C13.3679 4.21607 14 5.7422 14 7.3335C14 9.38283 12.8827 11.0602 11.7053 12.2635C11.117 12.8581 10.4752 13.3973 9.788 13.8742L9.504 14.0675L9.37067 14.1562L9.11933 14.3162L8.89533 14.4528L8.618 14.6142C8.42967 14.7214 8.2167 14.7777 8 14.7777C7.7833 14.7777 7.57033 14.7214 7.382 14.6142L7.10467 14.4528L6.758 14.2395L6.63 14.1562L6.35667 13.9742C5.61532 13.4724 4.92471 12.8994 4.29467 12.2635C3.11733 11.0595 2 9.38283 2 7.3335C2 5.7422 2.63214 4.21607 3.75736 3.09086C4.88258 1.96564 6.4087 1.3335 8 1.3335ZM8 5.3335C7.73736 5.3335 7.47728 5.38523 7.23463 5.48574C6.99198 5.58625 6.7715 5.73357 6.58579 5.91928C6.40007 6.105 6.25275 6.32548 6.15224 6.56813C6.05173 6.81078 6 7.07085 6 7.3335C6 7.59614 6.05173 7.85621 6.15224 8.09886C6.25275 8.34151 6.40007 8.56199 6.58579 8.74771C6.7715 8.93343 6.99198 9.08075 7.23463 9.18126C7.47728 9.28176 7.73736 9.3335 8 9.3335C8.53043 9.3335 9.03914 9.12278 9.41421 8.74771C9.78929 8.37264 10 7.86393 10 7.3335C10 6.80306 9.78929 6.29436 9.41421 5.91928C9.03914 5.54421 8.53043 5.3335 8 5.3335Z" fill="#295BFF"/>
</g>
</svg>
