<svg width="22" height="22" viewBox="0 0 22 22" fill="none" xmlns="http://www.w3.org/2000/svg">
<g id="ph:money">
<path id="Vector" d="M11 7.5625C10.3201 7.5625 9.65552 7.76411 9.09023 8.14182C8.52493 8.51954 8.08434 9.05641 7.82416 9.68453C7.56399 10.3126 7.49591 11.0038 7.62855 11.6706C7.76119 12.3374 8.08858 12.9499 8.56932 13.4307C9.05006 13.9114 9.66257 14.2388 10.3294 14.3714C10.9962 14.5041 11.6874 14.436 12.3155 14.1758C12.9436 13.9157 13.4805 13.4751 13.8582 12.9098C14.2359 12.3445 14.4375 11.6799 14.4375 11C14.4375 10.0883 14.0753 9.21398 13.4307 8.56932C12.786 7.92466 11.9117 7.5625 11 7.5625ZM11 13.0625C10.5921 13.0625 10.1933 12.9415 9.85414 12.7149C9.51496 12.4883 9.2506 12.1662 9.0945 11.7893C8.93839 11.4124 8.89755 10.9977 8.97713 10.5976C9.05671 10.1975 9.25315 9.83004 9.54159 9.54159C9.83004 9.25315 10.1975 9.05671 10.5976 8.97713C10.9977 8.89755 11.4124 8.93839 11.7893 9.0945C12.1662 9.2506 12.4883 9.51496 12.7149 9.85414C12.9415 10.1933 13.0625 10.5921 13.0625 11C13.0625 11.547 12.8452 12.0716 12.4584 12.4584C12.0716 12.8452 11.547 13.0625 11 13.0625ZM20.625 4.8125H1.375C1.19266 4.8125 1.0178 4.88493 0.888864 5.01386C0.759933 5.1428 0.6875 5.31766 0.6875 5.5V16.5C0.6875 16.6823 0.759933 16.8572 0.888864 16.9861C1.0178 17.1151 1.19266 17.1875 1.375 17.1875H20.625C20.8073 17.1875 20.9822 17.1151 21.1111 16.9861C21.2401 16.8572 21.3125 16.6823 21.3125 16.5V5.5C21.3125 5.31766 21.2401 5.1428 21.1111 5.01386C20.9822 4.88493 20.8073 4.8125 20.625 4.8125ZM16.6418 15.8125H5.3582C5.12738 15.0318 4.70491 14.3213 4.12928 13.7457C3.55365 13.1701 2.84315 12.7476 2.0625 12.5168V9.4832C2.84315 9.25238 3.55365 8.82991 4.12928 8.25428C4.70491 7.67865 5.12738 6.96815 5.3582 6.1875H16.6418C16.8726 6.96815 17.2951 7.67865 17.8707 8.25428C18.4463 8.82991 19.1568 9.25238 19.9375 9.4832V12.5168C19.1568 12.7476 18.4463 13.1701 17.8707 13.7457C17.2951 14.3213 16.8726 15.0318 16.6418 15.8125ZM19.9375 8.02398C19.1129 7.6694 18.4556 7.01212 18.101 6.1875H19.9375V8.02398ZM3.89898 6.1875C3.5444 7.01212 2.88712 7.6694 2.0625 8.02398V6.1875H3.89898ZM2.0625 13.976C2.88712 14.3306 3.5444 14.9879 3.89898 15.8125H2.0625V13.976ZM18.101 15.8125C18.4556 14.9879 19.1129 14.3306 19.9375 13.976V15.8125H18.101Z" fill="#295BFF"/>
</g>
</svg>
