<svg width="13" height="13" viewBox="0 0 13 13" fill="none" xmlns="http://www.w3.org/2000/svg">
<g id="clarity:user-solid" clip-path="url(#clip0_144_894)">
<path id="Vector" d="M11.0536 8.85449C10.4734 8.2258 9.76924 7.72407 8.98554 7.38091C8.20184 7.03775 7.35557 6.8606 6.50004 6.8606C5.6445 6.8606 4.79823 7.03775 4.01453 7.38091C3.23083 7.72407 2.52668 8.2258 1.94642 8.85449C1.85684 8.95355 1.80673 9.08204 1.80559 9.2156V11.3823C1.80749 11.5247 1.8654 11.6606 1.96677 11.7606C2.06815 11.8606 2.20484 11.9167 2.34726 11.9167H10.6528C10.7965 11.9167 10.9342 11.8596 11.0358 11.7581C11.1374 11.6565 11.1945 11.5187 11.1945 11.375V9.20838C11.1916 9.07732 11.1416 8.95169 11.0536 8.85449Z" fill="#B6B7BB"/>
<path id="Vector_2" d="M6.50003 6.13893C7.89609 6.13893 9.02781 5.00721 9.02781 3.61115C9.02781 2.2151 7.89609 1.08337 6.50003 1.08337C5.10398 1.08337 3.97226 2.2151 3.97226 3.61115C3.97226 5.00721 5.10398 6.13893 6.50003 6.13893Z" fill="#B6B7BB"/>
</g>
<defs>
<clipPath id="clip0_144_894">
<rect width="13" height="13" fill="white"/>
</clipPath>
</defs>
</svg>
