<svg width="14" height="16" viewBox="0 0 14 16" fill="none" xmlns="http://www.w3.org/2000/svg">
<path id="Vector" d="M13.1007 8.18445C13.1011 8.37299 13.0517 8.55844 12.9571 8.72277C12.8626 8.88709 12.7262 9.0247 12.5611 9.1222L2.33284 15.2401C2.16039 15.3434 1.96289 15.3997 1.76071 15.4034C1.55854 15.407 1.35903 15.3579 1.1828 15.2609C1.00824 15.1655 0.862825 15.0263 0.761513 14.8577C0.660201 14.6891 0.606645 14.4972 0.606354 14.3017V2.06724C0.606645 1.87169 0.660201 1.67976 0.761513 1.51116C0.862825 1.34257 1.00824 1.2034 1.1828 1.10797C1.35903 1.01104 1.55854 0.961862 1.76071 0.965522C1.96289 0.969183 2.16039 1.02555 2.33284 1.1288L12.5611 7.24671C12.7262 7.34421 12.8626 7.48182 12.9571 7.64614C13.0517 7.81046 13.1011 7.99591 13.1007 8.18445Z" fill="white"/>
</svg>
