<svg width="18" height="22" viewBox="0 0 18 22" fill="none" xmlns="http://www.w3.org/2000/svg">
<path id="Vector" fill-rule="evenodd" clip-rule="evenodd" d="M9.30766 0C8.0562 0 6.85599 0.500999 5.97107 1.39278C5.08615 2.28457 4.58901 3.49409 4.58901 4.75526C4.58901 6.01643 5.08615 7.22595 5.97107 8.11774C6.85599 9.00952 8.0562 9.51052 9.30766 9.51052C10.5591 9.51052 11.7593 9.00952 12.6443 8.11774C13.5292 7.22595 14.0263 6.01643 14.0263 4.75526C14.0263 3.49409 13.5292 2.28457 12.6443 1.39278C11.7593 0.500999 10.5591 0 9.30766 0ZM6.07911 4.75526C6.07911 3.89235 6.41926 3.06479 7.02473 2.45462C7.6302 1.84445 8.4514 1.50166 9.30766 1.50166C10.1639 1.50166 10.9851 1.84445 11.5906 2.45462C12.1961 3.06479 12.5362 3.89235 12.5362 4.75526C12.5362 5.61817 12.1961 6.44573 11.5906 7.0559C10.9851 7.66607 10.1639 8.00886 9.30766 8.00886C8.4514 8.00886 7.6302 7.66607 7.02473 7.0559C6.41926 6.44573 6.07911 5.61817 6.07911 4.75526ZM9.30766 11.0122C7.00993 11.0122 4.892 11.5388 3.32342 12.4277C1.77769 13.3047 0.615412 14.6322 0.615412 16.268V16.3701C0.614419 17.5334 0.613425 18.993 1.88398 20.0362C2.50883 20.5487 3.38402 20.9141 4.56616 21.1544C5.7503 21.3967 7.29503 21.5238 9.30766 21.5238C11.3203 21.5238 12.864 21.3967 14.0502 21.1544C15.2323 20.9141 16.1065 20.5487 16.7323 20.0362C18.0029 18.993 18.0009 17.5334 17.9999 16.3701V16.268C17.9999 14.6322 16.8376 13.3047 15.2929 12.4277C13.7233 11.5388 11.6064 11.0122 9.30766 11.0122ZM2.10551 16.268C2.10551 15.4161 2.72341 14.491 4.05357 13.7372C5.36088 12.9964 7.21656 12.5138 9.30866 12.5138C11.3988 12.5138 13.2544 12.9964 14.5618 13.7372C15.8929 14.491 16.5098 15.4161 16.5098 16.268C16.5098 17.5774 16.4701 18.3143 15.7906 18.8709C15.423 19.1732 14.8071 19.4685 13.7541 19.6828C12.7041 19.897 11.2686 20.0221 9.30766 20.0221C7.34669 20.0221 5.91023 19.897 4.8612 19.6828C3.8082 19.4685 3.19229 19.1732 2.82473 18.8719C2.14525 18.3143 2.10551 17.5774 2.10551 16.268Z" fill="#B6B7BB"/>
</svg>
