<svg width="13" height="13" viewBox="0 0 13 13" fill="none" xmlns="http://www.w3.org/2000/svg">
<g id="solar:star-bold">
<path id="Vector" d="M4.95792 2.92931C5.64421 1.69865 5.98709 1.08331 6.50005 1.08331C7.013 1.08331 7.35588 1.69865 8.04217 2.92931L8.21984 3.24781C8.41484 3.59773 8.51234 3.77269 8.664 3.88806C8.81567 4.00344 9.00525 4.04623 9.38442 4.13181L9.72892 4.20981C11.0614 4.51152 11.7271 4.66211 11.8858 5.17181C12.044 5.68098 11.5901 6.21236 10.6817 7.27456L10.4466 7.54919C10.1888 7.8509 10.0593 8.00202 10.0014 8.18835C9.94342 8.37523 9.96292 8.57673 10.0019 8.97919L10.0377 9.3459C10.1747 10.7634 10.2435 11.4719 9.82859 11.7866C9.41367 12.1019 8.78967 11.8143 7.54275 11.2401L7.21938 11.0917C6.86513 10.9281 6.688 10.8469 6.50005 10.8469C6.31209 10.8469 6.13496 10.9281 5.78071 11.0917L5.45788 11.2401C4.21042 11.8143 3.58642 12.1014 3.17205 11.7872C2.75659 11.4719 2.82538 10.7634 2.96242 9.3459L2.99817 8.97973C3.03717 8.57673 3.05667 8.37523 2.99817 8.1889C2.94075 8.00202 2.8113 7.8509 2.55346 7.54973L2.31838 7.27456C1.41 6.2129 0.956088 5.68152 1.11425 5.17181C1.27296 4.66211 1.93921 4.51098 3.27171 4.20981L3.61621 4.13181C3.99484 4.04623 4.18388 4.00344 4.33609 3.88806C4.48775 3.77269 4.58525 3.59773 4.78025 3.24781L4.95792 2.92931Z" fill="#FFCD29"/>
</g>
</svg>
