<svg width="14" height="14" viewBox="0 0 14 14" fill="none" xmlns="http://www.w3.org/2000/svg">
<g id="icon-park-outline:attention" clip-path="url(#clip0_355_56)">
<g id="Group">
<path id="Vector" d="M6.99996 12.8334C7.76615 12.8344 8.52499 12.684 9.23285 12.3908C9.94071 12.0975 10.5837 11.6673 11.1247 11.1248C11.6672 10.5838 12.0974 9.94084 12.3906 9.23297C12.6839 8.52511 12.8343 7.76628 12.8333 7.00009C12.8343 6.2339 12.6838 5.47507 12.3906 4.76721C12.0974 4.05935 11.6672 3.41641 11.1247 2.87534C10.5837 2.33284 9.94071 1.90263 9.23285 1.60941C8.52499 1.31619 7.76615 1.16576 6.99996 1.16675C6.23378 1.16578 5.47495 1.31622 4.76709 1.60943C4.05923 1.90265 3.41629 2.33286 2.87521 2.87534C2.33274 3.41641 1.90253 4.05935 1.60931 4.76721C1.3161 5.47507 1.16565 6.2339 1.16663 7.00009C1.16564 7.76628 1.31607 8.52511 1.60929 9.23297C1.90251 9.94084 2.33272 10.5838 2.87521 11.1248C3.41629 11.6673 4.05923 12.0975 4.76709 12.3907C5.47495 12.684 6.23378 12.8344 6.99996 12.8334Z" stroke="#FF0000" stroke-width="1.16667" stroke-linejoin="round"/>
<path id="Vector_2" d="M7.4124 10.4749C7.303 10.5843 7.15463 10.6458 6.99992 10.6458C6.84521 10.6458 6.69684 10.5843 6.58744 10.4749C6.47804 10.3655 6.41659 10.2171 6.41659 10.0624C6.41659 9.90771 6.47804 9.75934 6.58744 9.64994C6.69684 9.54054 6.84521 9.47909 6.99992 9.47909C7.15463 9.47909 7.303 9.54054 7.4124 9.64994C7.52179 9.75934 7.58325 9.90771 7.58325 10.0624C7.58325 10.2171 7.52179 10.3655 7.4124 10.4749Z" fill="#FF0000" stroke="#FF0000" stroke-width="0.291667"/>
<path id="Vector_3" d="M7 3.5V8.16667" stroke="#FF0000" stroke-width="1.16667" stroke-linecap="round" stroke-linejoin="round"/>
</g>
</g>
<defs>
<clipPath id="clip0_355_56">
<rect width="14" height="14" fill="white"/>
</clipPath>
</defs>
</svg>
